<mxfile host="app.diagrams.net" modified="2023-09-25T09:14:24.122Z" agent="Mozilla/5.0 (Windows NT 10.0; Win64; x64) AppleWebKit/537.36 (KHTML, like Gecko) Chrome/111.0.0.0 Safari/537.36" etag="3ti5hnQX76hDtsjRtPsv" version="21.8.0" type="github">
  <diagram name="第 1 页" id="kYDKt0bIS9psy3Maj4CA">
    <mxGraphModel dx="925" dy="913" grid="1" gridSize="10" guides="1" tooltips="1" connect="1" arrows="1" fold="1" page="1" pageScale="1" pageWidth="827" pageHeight="1169" math="0" shadow="0">
      <root>
        <mxCell id="0" />
        <mxCell id="1" parent="0" />
        <mxCell id="k-n6cHFPc8PgsHtmHgzM-1" value="TS" style="ellipse;whiteSpace=wrap;html=1;" vertex="1" parent="1">
          <mxGeometry x="350" y="90" width="120" height="80" as="geometry" />
        </mxCell>
        <mxCell id="k-n6cHFPc8PgsHtmHgzM-2" value="WS1" style="ellipse;whiteSpace=wrap;html=1;" vertex="1" parent="1">
          <mxGeometry x="80" y="260" width="120" height="80" as="geometry" />
        </mxCell>
        <mxCell id="k-n6cHFPc8PgsHtmHgzM-3" value="WS2" style="ellipse;whiteSpace=wrap;html=1;" vertex="1" parent="1">
          <mxGeometry x="610" y="260" width="120" height="80" as="geometry" />
        </mxCell>
        <mxCell id="k-n6cHFPc8PgsHtmHgzM-4" value="D!" style="ellipse;whiteSpace=wrap;html=1;" vertex="1" parent="1">
          <mxGeometry x="80" y="490" width="120" height="80" as="geometry" />
        </mxCell>
        <mxCell id="k-n6cHFPc8PgsHtmHgzM-5" value="D2" style="ellipse;whiteSpace=wrap;html=1;" vertex="1" parent="1">
          <mxGeometry x="610" y="480" width="120" height="80" as="geometry" />
        </mxCell>
        <mxCell id="k-n6cHFPc8PgsHtmHgzM-6" value="" style="endArrow=classic;html=1;rounded=0;entryX=0.5;entryY=1;entryDx=0;entryDy=0;exitX=0.5;exitY=0;exitDx=0;exitDy=0;" edge="1" parent="1" source="k-n6cHFPc8PgsHtmHgzM-4" target="k-n6cHFPc8PgsHtmHgzM-2">
          <mxGeometry width="50" height="50" relative="1" as="geometry">
            <mxPoint x="160" y="480" as="sourcePoint" />
            <mxPoint x="210" y="430" as="targetPoint" />
            <Array as="points">
              <mxPoint x="140" y="420" />
            </Array>
          </mxGeometry>
        </mxCell>
        <mxCell id="k-n6cHFPc8PgsHtmHgzM-71" value="邀请req1" style="edgeLabel;html=1;align=center;verticalAlign=middle;resizable=0;points=[];" vertex="1" connectable="0" parent="k-n6cHFPc8PgsHtmHgzM-6">
          <mxGeometry x="-0.24" y="3" relative="1" as="geometry">
            <mxPoint as="offset" />
          </mxGeometry>
        </mxCell>
        <mxCell id="k-n6cHFPc8PgsHtmHgzM-8" value="" style="endArrow=classic;html=1;rounded=0;entryX=0.5;entryY=1;entryDx=0;entryDy=0;exitX=0.5;exitY=0;exitDx=0;exitDy=0;" edge="1" parent="1">
          <mxGeometry width="50" height="50" relative="1" as="geometry">
            <mxPoint x="669.5" y="480" as="sourcePoint" />
            <mxPoint x="669.5" y="340" as="targetPoint" />
          </mxGeometry>
        </mxCell>
        <mxCell id="k-n6cHFPc8PgsHtmHgzM-76" value="受邀req6" style="edgeLabel;html=1;align=center;verticalAlign=middle;resizable=0;points=[];" vertex="1" connectable="0" parent="k-n6cHFPc8PgsHtmHgzM-8">
          <mxGeometry x="-0.1857" y="-1" relative="1" as="geometry">
            <mxPoint x="1" as="offset" />
          </mxGeometry>
        </mxCell>
        <mxCell id="k-n6cHFPc8PgsHtmHgzM-9" value="" style="endArrow=classic;html=1;rounded=0;entryX=0;entryY=0.613;entryDx=0;entryDy=0;exitX=0.692;exitY=0.038;exitDx=0;exitDy=0;exitPerimeter=0;entryPerimeter=0;" edge="1" parent="1" source="k-n6cHFPc8PgsHtmHgzM-2" target="k-n6cHFPc8PgsHtmHgzM-1">
          <mxGeometry width="50" height="50" relative="1" as="geometry">
            <mxPoint x="350" y="280" as="sourcePoint" />
            <mxPoint x="350" y="130" as="targetPoint" />
          </mxGeometry>
        </mxCell>
        <mxCell id="k-n6cHFPc8PgsHtmHgzM-72" value="邀请req2" style="edgeLabel;html=1;align=center;verticalAlign=middle;resizable=0;points=[];" vertex="1" connectable="0" parent="k-n6cHFPc8PgsHtmHgzM-9">
          <mxGeometry x="-0.2335" y="-4" relative="1" as="geometry">
            <mxPoint as="offset" />
          </mxGeometry>
        </mxCell>
        <mxCell id="k-n6cHFPc8PgsHtmHgzM-10" value="" style="endArrow=classic;html=1;rounded=0;entryX=1;entryY=0.5;entryDx=0;entryDy=0;exitX=0.5;exitY=0;exitDx=0;exitDy=0;" edge="1" parent="1" source="k-n6cHFPc8PgsHtmHgzM-3" target="k-n6cHFPc8PgsHtmHgzM-1">
          <mxGeometry width="50" height="50" relative="1" as="geometry">
            <mxPoint x="150" y="270" as="sourcePoint" />
            <mxPoint x="360" y="140" as="targetPoint" />
          </mxGeometry>
        </mxCell>
        <mxCell id="k-n6cHFPc8PgsHtmHgzM-78" value="受邀rsp9" style="edgeLabel;html=1;align=center;verticalAlign=middle;resizable=0;points=[];" vertex="1" connectable="0" parent="k-n6cHFPc8PgsHtmHgzM-10">
          <mxGeometry x="-0.3026" y="-3" relative="1" as="geometry">
            <mxPoint as="offset" />
          </mxGeometry>
        </mxCell>
        <mxCell id="k-n6cHFPc8PgsHtmHgzM-11" value="" style="endArrow=classic;html=1;rounded=0;entryX=1;entryY=0.5;entryDx=0;entryDy=0;exitX=0;exitY=1;exitDx=0;exitDy=0;" edge="1" parent="1" source="k-n6cHFPc8PgsHtmHgzM-1" target="k-n6cHFPc8PgsHtmHgzM-2">
          <mxGeometry width="50" height="50" relative="1" as="geometry">
            <mxPoint x="673" y="273" as="sourcePoint" />
            <mxPoint x="480" y="140" as="targetPoint" />
          </mxGeometry>
        </mxCell>
        <mxCell id="k-n6cHFPc8PgsHtmHgzM-74" value="邀请rsp4" style="edgeLabel;html=1;align=center;verticalAlign=middle;resizable=0;points=[];" vertex="1" connectable="0" parent="k-n6cHFPc8PgsHtmHgzM-11">
          <mxGeometry x="0.0715" y="5" relative="1" as="geometry">
            <mxPoint as="offset" />
          </mxGeometry>
        </mxCell>
        <mxCell id="k-n6cHFPc8PgsHtmHgzM-12" value="" style="endArrow=classic;html=1;rounded=0;exitX=0.908;exitY=0.863;exitDx=0;exitDy=0;exitPerimeter=0;" edge="1" parent="1" source="k-n6cHFPc8PgsHtmHgzM-1" target="k-n6cHFPc8PgsHtmHgzM-3">
          <mxGeometry width="50" height="50" relative="1" as="geometry">
            <mxPoint x="460" y="160" as="sourcePoint" />
            <mxPoint x="192" y="282" as="targetPoint" />
          </mxGeometry>
        </mxCell>
        <mxCell id="k-n6cHFPc8PgsHtmHgzM-77" value="受邀req7" style="edgeLabel;html=1;align=center;verticalAlign=middle;resizable=0;points=[];" vertex="1" connectable="0" parent="k-n6cHFPc8PgsHtmHgzM-12">
          <mxGeometry x="0.2751" y="-3" relative="1" as="geometry">
            <mxPoint as="offset" />
          </mxGeometry>
        </mxCell>
        <mxCell id="k-n6cHFPc8PgsHtmHgzM-13" value="" style="endArrow=classic;html=1;rounded=0;exitX=0.5;exitY=1;exitDx=0;exitDy=0;entryX=0;entryY=0.5;entryDx=0;entryDy=0;" edge="1" parent="1" source="k-n6cHFPc8PgsHtmHgzM-1" target="k-n6cHFPc8PgsHtmHgzM-5">
          <mxGeometry width="50" height="50" relative="1" as="geometry">
            <mxPoint x="469" y="169" as="sourcePoint" />
            <mxPoint x="637" y="282" as="targetPoint" />
          </mxGeometry>
        </mxCell>
        <mxCell id="k-n6cHFPc8PgsHtmHgzM-73" value="邀请noti3" style="edgeLabel;html=1;align=center;verticalAlign=middle;resizable=0;points=[];" vertex="1" connectable="0" parent="k-n6cHFPc8PgsHtmHgzM-13">
          <mxGeometry x="-0.3772" y="2" relative="1" as="geometry">
            <mxPoint as="offset" />
          </mxGeometry>
        </mxCell>
        <mxCell id="k-n6cHFPc8PgsHtmHgzM-14" value="" style="endArrow=classic;html=1;rounded=0;entryX=1;entryY=0;entryDx=0;entryDy=0;exitX=1;exitY=1;exitDx=0;exitDy=0;" edge="1" parent="1" source="k-n6cHFPc8PgsHtmHgzM-3" target="k-n6cHFPc8PgsHtmHgzM-5">
          <mxGeometry width="50" height="50" relative="1" as="geometry">
            <mxPoint x="679.5" y="490" as="sourcePoint" />
            <mxPoint x="679.5" y="350" as="targetPoint" />
          </mxGeometry>
        </mxCell>
        <mxCell id="k-n6cHFPc8PgsHtmHgzM-82" value="受邀rsp10" style="edgeLabel;html=1;align=center;verticalAlign=middle;resizable=0;points=[];" vertex="1" connectable="0" parent="k-n6cHFPc8PgsHtmHgzM-14">
          <mxGeometry x="0.0245" y="3" relative="1" as="geometry">
            <mxPoint as="offset" />
          </mxGeometry>
        </mxCell>
        <mxCell id="k-n6cHFPc8PgsHtmHgzM-15" value="" style="endArrow=classic;html=1;rounded=0;entryX=0;entryY=0;entryDx=0;entryDy=0;exitX=0;exitY=1;exitDx=0;exitDy=0;" edge="1" parent="1" source="k-n6cHFPc8PgsHtmHgzM-2" target="k-n6cHFPc8PgsHtmHgzM-4">
          <mxGeometry width="50" height="50" relative="1" as="geometry">
            <mxPoint x="150" y="500" as="sourcePoint" />
            <mxPoint x="150" y="350" as="targetPoint" />
            <Array as="points" />
          </mxGeometry>
        </mxCell>
        <mxCell id="k-n6cHFPc8PgsHtmHgzM-83" value="sync11" style="edgeLabel;html=1;align=center;verticalAlign=middle;resizable=0;points=[];" vertex="1" connectable="0" parent="k-n6cHFPc8PgsHtmHgzM-15">
          <mxGeometry x="-0.0115" y="-2" relative="1" as="geometry">
            <mxPoint as="offset" />
          </mxGeometry>
        </mxCell>
        <mxCell id="k-n6cHFPc8PgsHtmHgzM-16" value="" style="endArrow=classic;html=1;rounded=0;entryX=1;entryY=0;entryDx=0;entryDy=0;exitX=1;exitY=1;exitDx=0;exitDy=0;" edge="1" parent="1" source="k-n6cHFPc8PgsHtmHgzM-2" target="k-n6cHFPc8PgsHtmHgzM-4">
          <mxGeometry width="50" height="50" relative="1" as="geometry">
            <mxPoint x="270" y="490" as="sourcePoint" />
            <mxPoint x="270" y="340" as="targetPoint" />
            <Array as="points" />
          </mxGeometry>
        </mxCell>
        <mxCell id="k-n6cHFPc8PgsHtmHgzM-75" value="邀请rsp5" style="edgeLabel;html=1;align=center;verticalAlign=middle;resizable=0;points=[];" vertex="1" connectable="0" parent="k-n6cHFPc8PgsHtmHgzM-16">
          <mxGeometry x="0.0807" y="3" relative="1" as="geometry">
            <mxPoint as="offset" />
          </mxGeometry>
        </mxCell>
        <mxCell id="k-n6cHFPc8PgsHtmHgzM-17" value="" style="endArrow=classic;html=1;rounded=0;entryX=0;entryY=0;entryDx=0;entryDy=0;exitX=0;exitY=0;exitDx=0;exitDy=0;" edge="1" parent="1" source="k-n6cHFPc8PgsHtmHgzM-1" target="k-n6cHFPc8PgsHtmHgzM-2">
          <mxGeometry width="50" height="50" relative="1" as="geometry">
            <mxPoint x="268" y="148" as="sourcePoint" />
            <mxPoint x="90" y="260" as="targetPoint" />
          </mxGeometry>
        </mxCell>
        <mxCell id="k-n6cHFPc8PgsHtmHgzM-79" value="sync8" style="edgeLabel;html=1;align=center;verticalAlign=middle;resizable=0;points=[];" vertex="1" connectable="0" parent="k-n6cHFPc8PgsHtmHgzM-17">
          <mxGeometry x="0.0651" y="-1" relative="1" as="geometry">
            <mxPoint as="offset" />
          </mxGeometry>
        </mxCell>
        <mxCell id="k-n6cHFPc8PgsHtmHgzM-18" value="TS" style="ellipse;whiteSpace=wrap;html=1;" vertex="1" parent="1">
          <mxGeometry x="370" y="900" width="120" height="80" as="geometry" />
        </mxCell>
        <mxCell id="k-n6cHFPc8PgsHtmHgzM-19" value="WS1" style="ellipse;whiteSpace=wrap;html=1;" vertex="1" parent="1">
          <mxGeometry x="100" y="1070" width="120" height="80" as="geometry" />
        </mxCell>
        <mxCell id="k-n6cHFPc8PgsHtmHgzM-20" value="WS2" style="ellipse;whiteSpace=wrap;html=1;" vertex="1" parent="1">
          <mxGeometry x="630" y="1070" width="120" height="80" as="geometry" />
        </mxCell>
        <mxCell id="k-n6cHFPc8PgsHtmHgzM-21" value="D1" style="ellipse;whiteSpace=wrap;html=1;" vertex="1" parent="1">
          <mxGeometry x="100" y="1300" width="120" height="80" as="geometry" />
        </mxCell>
        <mxCell id="k-n6cHFPc8PgsHtmHgzM-22" value="D2" style="ellipse;whiteSpace=wrap;html=1;" vertex="1" parent="1">
          <mxGeometry x="630" y="1290" width="120" height="80" as="geometry" />
        </mxCell>
        <mxCell id="k-n6cHFPc8PgsHtmHgzM-23" value="" style="endArrow=classic;html=1;rounded=0;entryX=0.5;entryY=1;entryDx=0;entryDy=0;exitX=0.5;exitY=0;exitDx=0;exitDy=0;" edge="1" parent="1" source="k-n6cHFPc8PgsHtmHgzM-21" target="k-n6cHFPc8PgsHtmHgzM-19">
          <mxGeometry width="50" height="50" relative="1" as="geometry">
            <mxPoint x="180" y="1290" as="sourcePoint" />
            <mxPoint x="230" y="1240" as="targetPoint" />
            <Array as="points">
              <mxPoint x="160" y="1230" />
            </Array>
          </mxGeometry>
        </mxCell>
        <mxCell id="k-n6cHFPc8PgsHtmHgzM-25" value="" style="endArrow=classic;html=1;rounded=0;exitX=0.975;exitY=0.238;exitDx=0;exitDy=0;exitPerimeter=0;entryX=0.033;entryY=0.738;entryDx=0;entryDy=0;entryPerimeter=0;" edge="1" parent="1" source="k-n6cHFPc8PgsHtmHgzM-19" target="k-n6cHFPc8PgsHtmHgzM-18">
          <mxGeometry width="50" height="50" relative="1" as="geometry">
            <mxPoint x="370" y="1090" as="sourcePoint" />
            <mxPoint x="360" y="960" as="targetPoint" />
          </mxGeometry>
        </mxCell>
        <mxCell id="k-n6cHFPc8PgsHtmHgzM-87" value="申请req2" style="edgeLabel;html=1;align=center;verticalAlign=middle;resizable=0;points=[];" vertex="1" connectable="0" parent="k-n6cHFPc8PgsHtmHgzM-25">
          <mxGeometry x="-0.3942" y="1" relative="1" as="geometry">
            <mxPoint x="-14" y="11" as="offset" />
          </mxGeometry>
        </mxCell>
        <mxCell id="k-n6cHFPc8PgsHtmHgzM-27" value="" style="endArrow=classic;html=1;rounded=0;entryX=1;entryY=0.5;entryDx=0;entryDy=0;exitX=0;exitY=1;exitDx=0;exitDy=0;" edge="1" parent="1" source="k-n6cHFPc8PgsHtmHgzM-18" target="k-n6cHFPc8PgsHtmHgzM-19">
          <mxGeometry width="50" height="50" relative="1" as="geometry">
            <mxPoint x="693" y="1083" as="sourcePoint" />
            <mxPoint x="500" y="950" as="targetPoint" />
          </mxGeometry>
        </mxCell>
        <mxCell id="k-n6cHFPc8PgsHtmHgzM-96" value="sync9" style="edgeLabel;html=1;align=center;verticalAlign=middle;resizable=0;points=[];" vertex="1" connectable="0" parent="k-n6cHFPc8PgsHtmHgzM-27">
          <mxGeometry x="-0.2249" y="4" relative="1" as="geometry">
            <mxPoint as="offset" />
          </mxGeometry>
        </mxCell>
        <mxCell id="k-n6cHFPc8PgsHtmHgzM-28" value="" style="endArrow=classic;html=1;rounded=0;exitX=1.025;exitY=0.613;exitDx=0;exitDy=0;exitPerimeter=0;" edge="1" parent="1" source="k-n6cHFPc8PgsHtmHgzM-18" target="k-n6cHFPc8PgsHtmHgzM-20">
          <mxGeometry width="50" height="50" relative="1" as="geometry">
            <mxPoint x="480" y="970" as="sourcePoint" />
            <mxPoint x="212" y="1092" as="targetPoint" />
          </mxGeometry>
        </mxCell>
        <mxCell id="k-n6cHFPc8PgsHtmHgzM-95" value="sync9" style="edgeLabel;html=1;align=center;verticalAlign=middle;resizable=0;points=[];" vertex="1" connectable="0" parent="k-n6cHFPc8PgsHtmHgzM-28">
          <mxGeometry x="-0.1923" y="-2" relative="1" as="geometry">
            <mxPoint as="offset" />
          </mxGeometry>
        </mxCell>
        <mxCell id="k-n6cHFPc8PgsHtmHgzM-29" value="" style="endArrow=classic;html=1;rounded=0;exitX=0.5;exitY=1;exitDx=0;exitDy=0;entryX=0;entryY=0.5;entryDx=0;entryDy=0;" edge="1" parent="1" source="k-n6cHFPc8PgsHtmHgzM-18" target="k-n6cHFPc8PgsHtmHgzM-22">
          <mxGeometry width="50" height="50" relative="1" as="geometry">
            <mxPoint x="489" y="979" as="sourcePoint" />
            <mxPoint x="657" y="1092" as="targetPoint" />
          </mxGeometry>
        </mxCell>
        <mxCell id="k-n6cHFPc8PgsHtmHgzM-88" value="申请noti3" style="edgeLabel;html=1;align=center;verticalAlign=middle;resizable=0;points=[];" vertex="1" connectable="0" parent="k-n6cHFPc8PgsHtmHgzM-29">
          <mxGeometry x="-0.0425" y="-1" relative="1" as="geometry">
            <mxPoint as="offset" />
          </mxGeometry>
        </mxCell>
        <mxCell id="k-n6cHFPc8PgsHtmHgzM-30" value="" style="endArrow=classic;html=1;rounded=0;entryX=0.5;entryY=0;entryDx=0;entryDy=0;exitX=0.5;exitY=1;exitDx=0;exitDy=0;" edge="1" parent="1" source="k-n6cHFPc8PgsHtmHgzM-20" target="k-n6cHFPc8PgsHtmHgzM-22">
          <mxGeometry width="50" height="50" relative="1" as="geometry">
            <mxPoint x="699.5" y="1300" as="sourcePoint" />
            <mxPoint x="699.5" y="1160" as="targetPoint" />
          </mxGeometry>
        </mxCell>
        <mxCell id="k-n6cHFPc8PgsHtmHgzM-98" value="sync10" style="edgeLabel;html=1;align=center;verticalAlign=middle;resizable=0;points=[];" vertex="1" connectable="0" parent="k-n6cHFPc8PgsHtmHgzM-30">
          <mxGeometry x="-0.0857" y="-4" relative="1" as="geometry">
            <mxPoint as="offset" />
          </mxGeometry>
        </mxCell>
        <mxCell id="k-n6cHFPc8PgsHtmHgzM-31" value="" style="endArrow=classic;html=1;rounded=0;entryX=0;entryY=0;entryDx=0;entryDy=0;exitX=0;exitY=1;exitDx=0;exitDy=0;" edge="1" parent="1" source="k-n6cHFPc8PgsHtmHgzM-19" target="k-n6cHFPc8PgsHtmHgzM-21">
          <mxGeometry width="50" height="50" relative="1" as="geometry">
            <mxPoint x="170" y="1310" as="sourcePoint" />
            <mxPoint x="170" y="1160" as="targetPoint" />
            <Array as="points" />
          </mxGeometry>
        </mxCell>
        <mxCell id="k-n6cHFPc8PgsHtmHgzM-90" value="申请rsp5" style="edgeLabel;html=1;align=center;verticalAlign=middle;resizable=0;points=[];" vertex="1" connectable="0" parent="k-n6cHFPc8PgsHtmHgzM-31">
          <mxGeometry x="0.0346" y="3" relative="1" as="geometry">
            <mxPoint as="offset" />
          </mxGeometry>
        </mxCell>
        <mxCell id="k-n6cHFPc8PgsHtmHgzM-32" value="" style="endArrow=classic;html=1;rounded=0;entryX=1;entryY=0;entryDx=0;entryDy=0;exitX=1;exitY=1;exitDx=0;exitDy=0;" edge="1" parent="1" source="k-n6cHFPc8PgsHtmHgzM-19" target="k-n6cHFPc8PgsHtmHgzM-21">
          <mxGeometry width="50" height="50" relative="1" as="geometry">
            <mxPoint x="290" y="1300" as="sourcePoint" />
            <mxPoint x="290" y="1150" as="targetPoint" />
            <Array as="points" />
          </mxGeometry>
        </mxCell>
        <mxCell id="k-n6cHFPc8PgsHtmHgzM-86" value="申请req1" style="edgeLabel;html=1;align=center;verticalAlign=middle;resizable=0;points=[];" vertex="1" connectable="0" parent="k-n6cHFPc8PgsHtmHgzM-32">
          <mxGeometry x="0.1845" y="3" relative="1" as="geometry">
            <mxPoint x="-45" y="-41" as="offset" />
          </mxGeometry>
        </mxCell>
        <mxCell id="k-n6cHFPc8PgsHtmHgzM-97" value="sync10" style="edgeLabel;html=1;align=center;verticalAlign=middle;resizable=0;points=[];" vertex="1" connectable="0" parent="k-n6cHFPc8PgsHtmHgzM-32">
          <mxGeometry x="-0.0807" y="-1" relative="1" as="geometry">
            <mxPoint as="offset" />
          </mxGeometry>
        </mxCell>
        <mxCell id="k-n6cHFPc8PgsHtmHgzM-33" value="" style="endArrow=classic;html=1;rounded=0;entryX=1;entryY=0;entryDx=0;entryDy=0;exitX=0;exitY=0.5;exitDx=0;exitDy=0;" edge="1" parent="1" source="k-n6cHFPc8PgsHtmHgzM-18" target="k-n6cHFPc8PgsHtmHgzM-19">
          <mxGeometry width="50" height="50" relative="1" as="geometry">
            <mxPoint x="288" y="958" as="sourcePoint" />
            <mxPoint x="110" y="1070" as="targetPoint" />
          </mxGeometry>
        </mxCell>
        <mxCell id="k-n6cHFPc8PgsHtmHgzM-89" value="申请rsp4" style="edgeLabel;html=1;align=center;verticalAlign=middle;resizable=0;points=[];" vertex="1" connectable="0" parent="k-n6cHFPc8PgsHtmHgzM-33">
          <mxGeometry x="0.1714" y="-1" relative="1" as="geometry">
            <mxPoint x="-11" y="7" as="offset" />
          </mxGeometry>
        </mxCell>
        <mxCell id="k-n6cHFPc8PgsHtmHgzM-35" value="" style="endArrow=classic;html=1;rounded=0;entryX=1;entryY=0;entryDx=0;entryDy=0;" edge="1" parent="1">
          <mxGeometry width="50" height="50" relative="1" as="geometry">
            <mxPoint x="360" y="900" as="sourcePoint" />
            <mxPoint x="160" y="1062" as="targetPoint" />
          </mxGeometry>
        </mxCell>
        <mxCell id="k-n6cHFPc8PgsHtmHgzM-93" value="锁定状态" style="edgeLabel;html=1;align=center;verticalAlign=middle;resizable=0;points=[];" vertex="1" connectable="0" parent="k-n6cHFPc8PgsHtmHgzM-35">
          <mxGeometry x="0.262" y="-3" relative="1" as="geometry">
            <mxPoint x="-22" y="20" as="offset" />
          </mxGeometry>
        </mxCell>
        <mxCell id="k-n6cHFPc8PgsHtmHgzM-36" value="" style="endArrow=classic;html=1;rounded=0;exitX=0.667;exitY=0;exitDx=0;exitDy=0;exitPerimeter=0;" edge="1" parent="1" source="k-n6cHFPc8PgsHtmHgzM-19">
          <mxGeometry width="50" height="50" relative="1" as="geometry">
            <mxPoint x="200" y="1080" as="sourcePoint" />
            <mxPoint x="360" y="930" as="targetPoint" />
          </mxGeometry>
        </mxCell>
        <mxCell id="k-n6cHFPc8PgsHtmHgzM-92" value="受申req7" style="edgeLabel;html=1;align=center;verticalAlign=middle;resizable=0;points=[];" vertex="1" connectable="0" parent="k-n6cHFPc8PgsHtmHgzM-36">
          <mxGeometry x="0.2045" y="-4" relative="1" as="geometry">
            <mxPoint x="-21" y="-19" as="offset" />
          </mxGeometry>
        </mxCell>
        <mxCell id="k-n6cHFPc8PgsHtmHgzM-94" value="受申rsp8" style="edgeLabel;html=1;align=center;verticalAlign=middle;resizable=0;points=[];" vertex="1" connectable="0" parent="k-n6cHFPc8PgsHtmHgzM-36">
          <mxGeometry x="-0.0055" y="-1" relative="1" as="geometry">
            <mxPoint as="offset" />
          </mxGeometry>
        </mxCell>
        <mxCell id="k-n6cHFPc8PgsHtmHgzM-37" value="" style="endArrow=classic;html=1;rounded=0;entryX=0.808;entryY=0.975;entryDx=0;entryDy=0;entryPerimeter=0;exitX=0;exitY=0;exitDx=0;exitDy=0;" edge="1" parent="1" source="k-n6cHFPc8PgsHtmHgzM-22" target="k-n6cHFPc8PgsHtmHgzM-18">
          <mxGeometry width="50" height="50" relative="1" as="geometry">
            <mxPoint x="650" y="1260" as="sourcePoint" />
            <mxPoint x="640" y="1340" as="targetPoint" />
          </mxGeometry>
        </mxCell>
        <mxCell id="k-n6cHFPc8PgsHtmHgzM-91" value="受申req6" style="edgeLabel;html=1;align=center;verticalAlign=middle;resizable=0;points=[];" vertex="1" connectable="0" parent="k-n6cHFPc8PgsHtmHgzM-37">
          <mxGeometry x="-0.2945" y="1" relative="1" as="geometry">
            <mxPoint as="offset" />
          </mxGeometry>
        </mxCell>
        <mxCell id="k-n6cHFPc8PgsHtmHgzM-38" value="邀请入队" style="text;html=1;strokeColor=none;fillColor=none;align=center;verticalAlign=middle;whiteSpace=wrap;rounded=0;" vertex="1" parent="1">
          <mxGeometry x="370" y="350" width="60" height="30" as="geometry" />
        </mxCell>
        <mxCell id="k-n6cHFPc8PgsHtmHgzM-39" value="申请入队" style="text;html=1;strokeColor=none;fillColor=none;align=center;verticalAlign=middle;whiteSpace=wrap;rounded=0;" vertex="1" parent="1">
          <mxGeometry x="400" y="1150" width="60" height="30" as="geometry" />
        </mxCell>
        <mxCell id="k-n6cHFPc8PgsHtmHgzM-40" value="" style="endArrow=none;html=1;rounded=0;arcSize=12;" edge="1" parent="1">
          <mxGeometry width="50" height="50" relative="1" as="geometry">
            <mxPoint x="400" y="2340" as="sourcePoint" />
            <mxPoint x="400" y="1690" as="targetPoint" />
          </mxGeometry>
        </mxCell>
        <mxCell id="k-n6cHFPc8PgsHtmHgzM-41" value="" style="endArrow=classic;html=1;rounded=0;arcSize=12;" edge="1" parent="1">
          <mxGeometry width="50" height="50" relative="1" as="geometry">
            <mxPoint x="230" y="1720" as="sourcePoint" />
            <mxPoint x="400" y="1720" as="targetPoint" />
          </mxGeometry>
        </mxCell>
        <mxCell id="k-n6cHFPc8PgsHtmHgzM-47" value="邀请req" style="edgeLabel;html=1;align=center;verticalAlign=middle;resizable=0;points=[];arcSize=12;" vertex="1" connectable="0" parent="k-n6cHFPc8PgsHtmHgzM-41">
          <mxGeometry x="0.0941" y="-4" relative="1" as="geometry">
            <mxPoint as="offset" />
          </mxGeometry>
        </mxCell>
        <mxCell id="k-n6cHFPc8PgsHtmHgzM-42" value="" style="endArrow=classic;html=1;rounded=0;arcSize=12;" edge="1" parent="1">
          <mxGeometry width="50" height="50" relative="1" as="geometry">
            <mxPoint x="400" y="1760" as="sourcePoint" />
            <mxPoint x="570" y="1760" as="targetPoint" />
          </mxGeometry>
        </mxCell>
        <mxCell id="k-n6cHFPc8PgsHtmHgzM-48" value="邀请noti" style="edgeLabel;html=1;align=center;verticalAlign=middle;resizable=0;points=[];arcSize=12;" vertex="1" connectable="0" parent="k-n6cHFPc8PgsHtmHgzM-42">
          <mxGeometry x="0.1059" y="-2" relative="1" as="geometry">
            <mxPoint as="offset" />
          </mxGeometry>
        </mxCell>
        <mxCell id="k-n6cHFPc8PgsHtmHgzM-43" value="" style="endArrow=classic;html=1;rounded=0;arcSize=12;" edge="1" parent="1">
          <mxGeometry width="50" height="50" relative="1" as="geometry">
            <mxPoint x="400" y="1920" as="sourcePoint" />
            <mxPoint x="570" y="1920" as="targetPoint" />
          </mxGeometry>
        </mxCell>
        <mxCell id="k-n6cHFPc8PgsHtmHgzM-51" value="受邀rsp" style="edgeLabel;html=1;align=center;verticalAlign=middle;resizable=0;points=[];arcSize=12;" vertex="1" connectable="0" parent="k-n6cHFPc8PgsHtmHgzM-43">
          <mxGeometry x="0.1059" y="-4" relative="1" as="geometry">
            <mxPoint as="offset" />
          </mxGeometry>
        </mxCell>
        <mxCell id="k-n6cHFPc8PgsHtmHgzM-44" value="" style="endArrow=classic;html=1;rounded=0;arcSize=12;" edge="1" parent="1">
          <mxGeometry width="50" height="50" relative="1" as="geometry">
            <mxPoint x="230" y="2040" as="sourcePoint" />
            <mxPoint x="400" y="2040" as="targetPoint" />
          </mxGeometry>
        </mxCell>
        <mxCell id="k-n6cHFPc8PgsHtmHgzM-52" value="申请req" style="edgeLabel;html=1;align=center;verticalAlign=middle;resizable=0;points=[];arcSize=12;" vertex="1" connectable="0" parent="k-n6cHFPc8PgsHtmHgzM-44">
          <mxGeometry x="-0.3059" y="-4" relative="1" as="geometry">
            <mxPoint as="offset" />
          </mxGeometry>
        </mxCell>
        <mxCell id="k-n6cHFPc8PgsHtmHgzM-45" value="" style="endArrow=classic;html=1;rounded=0;arcSize=12;" edge="1" parent="1">
          <mxGeometry width="50" height="50" relative="1" as="geometry">
            <mxPoint x="400" y="2080" as="sourcePoint" />
            <mxPoint x="570" y="2080" as="targetPoint" />
          </mxGeometry>
        </mxCell>
        <mxCell id="k-n6cHFPc8PgsHtmHgzM-53" value="申请noti" style="edgeLabel;html=1;align=center;verticalAlign=middle;resizable=0;points=[];arcSize=12;" vertex="1" connectable="0" parent="k-n6cHFPc8PgsHtmHgzM-45">
          <mxGeometry x="0.0706" relative="1" as="geometry">
            <mxPoint as="offset" />
          </mxGeometry>
        </mxCell>
        <mxCell id="k-n6cHFPc8PgsHtmHgzM-46" value="" style="endArrow=classic;html=1;rounded=0;arcSize=12;" edge="1" parent="1">
          <mxGeometry width="50" height="50" relative="1" as="geometry">
            <mxPoint x="400" y="2240" as="sourcePoint" />
            <mxPoint x="570" y="2240" as="targetPoint" />
          </mxGeometry>
        </mxCell>
        <mxCell id="k-n6cHFPc8PgsHtmHgzM-69" value="受申rsp" style="edgeLabel;html=1;align=center;verticalAlign=middle;resizable=0;points=[];arcSize=12;" vertex="1" connectable="0" parent="k-n6cHFPc8PgsHtmHgzM-46">
          <mxGeometry x="-0.1294" y="-3" relative="1" as="geometry">
            <mxPoint as="offset" />
          </mxGeometry>
        </mxCell>
        <mxCell id="k-n6cHFPc8PgsHtmHgzM-50" value="TEAMSVR" style="text;html=1;strokeColor=none;fillColor=none;align=center;verticalAlign=middle;whiteSpace=wrap;rounded=0;arcSize=12;" vertex="1" parent="1">
          <mxGeometry x="370" y="1650" width="60" height="30" as="geometry" />
        </mxCell>
        <mxCell id="k-n6cHFPc8PgsHtmHgzM-54" value="" style="endArrow=classic;html=1;rounded=0;arcSize=12;" edge="1" parent="1">
          <mxGeometry width="50" height="50" relative="1" as="geometry">
            <mxPoint x="400" y="1800" as="sourcePoint" />
            <mxPoint x="240" y="1800" as="targetPoint" />
          </mxGeometry>
        </mxCell>
        <mxCell id="k-n6cHFPc8PgsHtmHgzM-61" value="邀请rsp" style="edgeLabel;html=1;align=center;verticalAlign=middle;resizable=0;points=[];arcSize=12;" vertex="1" connectable="0" parent="k-n6cHFPc8PgsHtmHgzM-54">
          <mxGeometry x="-0.2875" relative="1" as="geometry">
            <mxPoint as="offset" />
          </mxGeometry>
        </mxCell>
        <mxCell id="k-n6cHFPc8PgsHtmHgzM-55" value="" style="endArrow=classic;html=1;rounded=0;arcSize=12;" edge="1" parent="1">
          <mxGeometry width="50" height="50" relative="1" as="geometry">
            <mxPoint x="560" y="1840" as="sourcePoint" />
            <mxPoint x="400" y="1840" as="targetPoint" />
          </mxGeometry>
        </mxCell>
        <mxCell id="k-n6cHFPc8PgsHtmHgzM-62" value="受邀req" style="edgeLabel;html=1;align=center;verticalAlign=middle;resizable=0;points=[];arcSize=12;" vertex="1" connectable="0" parent="k-n6cHFPc8PgsHtmHgzM-55">
          <mxGeometry x="-0.0875" y="3" relative="1" as="geometry">
            <mxPoint as="offset" />
          </mxGeometry>
        </mxCell>
        <mxCell id="k-n6cHFPc8PgsHtmHgzM-56" value="" style="endArrow=classic;html=1;rounded=0;arcSize=12;" edge="1" parent="1">
          <mxGeometry width="50" height="50" relative="1" as="geometry">
            <mxPoint x="400" y="1880" as="sourcePoint" />
            <mxPoint x="240" y="1880" as="targetPoint" />
          </mxGeometry>
        </mxCell>
        <mxCell id="k-n6cHFPc8PgsHtmHgzM-63" value="受邀noti" style="edgeLabel;html=1;align=center;verticalAlign=middle;resizable=0;points=[];arcSize=12;" vertex="1" connectable="0" parent="k-n6cHFPc8PgsHtmHgzM-56">
          <mxGeometry x="0.125" relative="1" as="geometry">
            <mxPoint as="offset" />
          </mxGeometry>
        </mxCell>
        <mxCell id="k-n6cHFPc8PgsHtmHgzM-57" value="" style="endArrow=classic;html=1;rounded=0;arcSize=12;" edge="1" parent="1">
          <mxGeometry width="50" height="50" relative="1" as="geometry">
            <mxPoint x="400" y="2120" as="sourcePoint" />
            <mxPoint x="240" y="2120" as="targetPoint" />
          </mxGeometry>
        </mxCell>
        <mxCell id="k-n6cHFPc8PgsHtmHgzM-67" value="申请rsp" style="edgeLabel;html=1;align=center;verticalAlign=middle;resizable=0;points=[];arcSize=12;" vertex="1" connectable="0" parent="k-n6cHFPc8PgsHtmHgzM-57">
          <mxGeometry x="-0.075" y="3" relative="1" as="geometry">
            <mxPoint as="offset" />
          </mxGeometry>
        </mxCell>
        <mxCell id="k-n6cHFPc8PgsHtmHgzM-58" value="" style="endArrow=classic;html=1;rounded=0;arcSize=12;" edge="1" parent="1">
          <mxGeometry width="50" height="50" relative="1" as="geometry">
            <mxPoint x="560" y="2160" as="sourcePoint" />
            <mxPoint x="400" y="2160" as="targetPoint" />
          </mxGeometry>
        </mxCell>
        <mxCell id="k-n6cHFPc8PgsHtmHgzM-65" value="受申req" style="edgeLabel;html=1;align=center;verticalAlign=middle;resizable=0;points=[];arcSize=12;" vertex="1" connectable="0" parent="k-n6cHFPc8PgsHtmHgzM-58">
          <mxGeometry x="0.2" y="4" relative="1" as="geometry">
            <mxPoint as="offset" />
          </mxGeometry>
        </mxCell>
        <mxCell id="k-n6cHFPc8PgsHtmHgzM-59" value="" style="endArrow=classic;html=1;rounded=0;arcSize=12;" edge="1" parent="1">
          <mxGeometry width="50" height="50" relative="1" as="geometry">
            <mxPoint x="400" y="2200" as="sourcePoint" />
            <mxPoint x="240" y="2200" as="targetPoint" />
          </mxGeometry>
        </mxCell>
        <mxCell id="k-n6cHFPc8PgsHtmHgzM-68" value="申请rsp" style="edgeLabel;html=1;align=center;verticalAlign=middle;resizable=0;points=[];arcSize=12;" vertex="1" connectable="0" parent="k-n6cHFPc8PgsHtmHgzM-59">
          <mxGeometry x="-0.1" y="-2" relative="1" as="geometry">
            <mxPoint as="offset" />
          </mxGeometry>
        </mxCell>
        <mxCell id="k-n6cHFPc8PgsHtmHgzM-60" value="" style="endArrow=none;dashed=1;html=1;rounded=0;" edge="1" parent="1">
          <mxGeometry width="50" height="50" relative="1" as="geometry">
            <mxPoint x="130" y="1980" as="sourcePoint" />
            <mxPoint x="690" y="1980" as="targetPoint" />
          </mxGeometry>
        </mxCell>
        <mxCell id="k-n6cHFPc8PgsHtmHgzM-64" value="(加入队伍)" style="text;html=1;strokeColor=none;fillColor=none;align=center;verticalAlign=middle;whiteSpace=wrap;rounded=0;arcSize=12;" vertex="1" parent="1">
          <mxGeometry x="410" y="1860" width="60" height="30" as="geometry" />
        </mxCell>
        <mxCell id="k-n6cHFPc8PgsHtmHgzM-70" value="(加入队伍)" style="text;html=1;strokeColor=none;fillColor=none;align=center;verticalAlign=middle;whiteSpace=wrap;rounded=0;arcSize=12;" vertex="1" parent="1">
          <mxGeometry x="410" y="2190" width="60" height="30" as="geometry" />
        </mxCell>
      </root>
    </mxGraphModel>
  </diagram>
</mxfile>
